<svg width="225" height="259" viewBox="0 0 225 259" version="1.1" xmlns="http://www.w3.org/2000/svg" xmlns:xlink="http://www.w3.org/1999/xlink">
<title>Canvas</title>
<desc>Created using Figma</desc>
<g id="Canvas" transform="translate(338 -53)">
<g id="Union">
<use xlink:href="#path0_fill" transform="translate(-335 53)" fill="#C4C4C4"/>
<mask id="mask0_outline_ins">
<use xlink:href="#path0_fill" fill="white" transform="translate(-335 53)"/>
</mask>
<g mask="url(#mask0_outline_ins)">
<use xlink:href="#path1_stroke_2x" transform="translate(-335 53)" fill="#FFBD6A"/>
</g>
</g>
<g id="Union" filter="url(#filter0_d)">
<use xlink:href="#path2_fill" transform="translate(-334 54)" fill="#E79E31"/>
<mask id="mask1_outline_ins">
<use xlink:href="#path2_fill" fill="white" transform="translate(-334 54)"/>
</mask>
<g mask="url(#mask1_outline_ins)">
<use xlink:href="#path3_stroke_2x" transform="translate(-334 54)" fill="#3E2B14"/>
</g>
</g>
</g>
<defs>
<filter id="filter0_d" filterUnits="userSpaceOnUse" x="-338" y="54" width="225" height="258" color-interpolation-filters="sRGB">
<feFlood flood-opacity="0" result="BackgroundImageFix"/>
<feColorMatrix in="SourceAlpha" type="matrix" values="0 0 0 0 0 0 0 0 0 0 0 0 0 0 0 0 0 0 255 0"/>
<feOffset dx="0" dy="4"/>
<feGaussianBlur stdDeviation="2"/>
<feColorMatrix type="matrix" values="0 0 0 0 0 0 0 0 0 0 0 0 0 0 0 0 0 0 0.25 0"/>
<feBlend mode="normal" in2="BackgroundImageFix" result="effect1_dropShadow"/>
<feBlend mode="normal" in="SourceGraphic" in2="effect1_dropShadow" result="shape"/>
</filter>
<path id="path0_fill" fill-rule="evenodd" d="M 45 0L 0 0L 0 7L 0 19L 0.777313 19C 6.75885 83.1487 40.0179 113.234 64.2581 123.896C 67.5859 128.02 70 130 70 130C 70 130 95.5 154 101 154L 101 155C 99.5908 211.37 83.5971 231.537 72.9707 236L 69 236L 69 237L 69 252L 158 252L 158 236C 148 235.333 127.6 218 126 154L 124 154C 134 154 156 130 156 130C 156 130 160.668 126.409 165.73 117.353C 187.786 102.908 212.184 73.0412 217.223 19L 218 19L 218 7L 218 0L 178 0L 45 0ZM 200 19L 178.982 19C 179.247 30.4718 179.188 47.1385 178 69C 177.645 75.5282 176.948 81.4321 176.013 86.7573C 179.487 83.2487 182.879 79.3348 186 75C 204 50 200 21 200 21L 200 19ZM 18 21L 18 19L 45 19L 45 63C 45 74.6733 46.5755 84.7081 48.9355 93.1914C 43.1172 88.2415 37.1852 82.2017 32 75C 14 50 18 21 18 21Z"/>
<path id="path1_stroke_2x" d="M 0 0L 0 -1L -1 -1L -1 0L 0 0ZM 0 19L -1 19L -1 20L 0 20L 0 19ZM 0.777313 19L 1.77299 18.9072L 1.68841 18L 0.777313 18L 0.777313 19ZM 64.2581 123.896L 65.0363 123.268L 64.8835 123.079L 64.6607 122.981L 64.2581 123.896ZM 70 130L 70.6854 129.272L 70.6605 129.248L 70.6341 129.227L 70 130ZM 101 154L 102 154L 102 153L 101 153L 101 154ZM 101 155L 102 155.025L 102 155.012L 102 155L 101 155ZM 72.9707 236L 72.9707 237L 73.1722 237L 73.3579 236.922L 72.9707 236ZM 69 236L 69 235L 68 235L 68 236L 69 236ZM 69 252L 68 252L 68 253L 69 253L 69 252ZM 158 252L 158 253L 159 253L 159 252L 158 252ZM 158 236L 159 236L 159 235.064L 158.067 235.002L 158 236ZM 126 154L 127 153.975L 126.975 153L 126 153L 126 154ZM 156 130L 155.39 129.207L 155.321 129.26L 155.263 129.324L 156 130ZM 165.73 117.353L 165.182 116.516L 164.976 116.65L 164.857 116.865L 165.73 117.353ZM 217.223 19L 217.223 18L 216.312 18L 216.227 18.9072L 217.223 19ZM 218 19L 218 20L 219 20L 219 19L 218 19ZM 218 0L 219 0L 219 -1L 218 -1L 218 0ZM 178.982 19L 178.982 18L 177.958 18L 177.982 19.0231L 178.982 19ZM 200 19L 201 19L 201 18L 200 18L 200 19ZM 178 69L 178.999 69.0543L 178.999 69.0543L 178 69ZM 176.013 86.7573L 175.028 86.5843L 174.475 89.7311L 176.723 87.4609L 176.013 86.7573ZM 186 75L 185.188 74.4157L 185.188 74.4157L 186 75ZM 200 21L 199 21L 199 21.0686L 199.009 21.1366L 200 21ZM 18 19L 18 18L 17 18L 17 19L 18 19ZM 18 21L 18.9906 21.1366L 19 21.0686L 19 21L 18 21ZM 45 19L 46 19L 46 18L 45 18L 45 19ZM 48.9355 93.1914L 48.2876 93.9531L 50.7738 96.0683L 49.899 92.9234L 48.9355 93.1914ZM 32 75L 32.8115 74.4157L 32.8115 74.4157L 32 75ZM 0 1L 45 1L 45 -1L 0 -1L 0 1ZM 1 7L 1 0L -1 0L -1 7L 1 7ZM 1 19L 1 7L -1 7L -1 19L 1 19ZM 0.777313 18L 0 18L 0 20L 0.777313 20L 0.777313 18ZM 64.6607 122.981C 40.7569 112.467 7.72123 82.6987 1.77299 18.9072L -0.218368 19.0928C 5.79647 83.5986 39.2789 114.001 63.8555 124.812L 64.6607 122.981ZM 70 130C 70.6341 129.227 70.6342 129.227 70.6343 129.227C 70.6343 129.227 70.6344 129.227 70.6345 129.227C 70.6345 129.227 70.6347 129.227 70.6347 129.227C 70.6348 129.227 70.6346 129.227 70.6344 129.227C 70.6336 129.226 70.6329 129.226 70.6312 129.224C 70.6273 129.221 70.6224 129.217 70.6146 129.21C 70.5975 129.196 70.5742 129.176 70.5408 129.148C 70.4711 129.088 70.3725 129.002 70.2391 128.882C 69.9666 128.638 69.5788 128.278 69.0809 127.784C 68.0737 126.786 66.6758 125.301 65.0363 123.268L 63.4799 124.524C 65.1682 126.615 66.6412 128.182 67.673 129.205C 68.1947 129.722 68.6183 130.115 68.9025 130.37C 69.0474 130.5 69.1634 130.601 69.2388 130.666C 69.2779 130.699 69.3097 130.726 69.3296 130.743C 69.3402 130.752 69.3493 130.76 69.3547 130.764C 69.3577 130.767 69.3605 130.769 69.3621 130.77C 69.363 130.771 69.364 130.772 69.3644 130.772C 69.3648 130.772 69.3651 130.773 69.3653 130.773C 69.3654 130.773 69.3656 130.773 69.3656 130.773C 69.3658 130.773 69.3659 130.773 70 130ZM 101 153C 100.587 153 99.7832 152.743 98.5615 152.087C 97.3738 151.451 95.9797 150.548 94.4154 149.435C 91.2767 147.204 87.6072 144.23 84.0849 141.238C 80.5631 138.246 77.2161 135.257 74.7427 133.01C 73.507 131.887 72.4931 130.953 71.7862 130.298C 71.4332 129.971 71.1581 129.714 70.9705 129.539C 70.8769 129.451 70.8056 129.385 70.7574 129.339C 70.7334 129.317 70.7154 129.3 70.7032 129.289C 70.6972 129.283 70.6927 129.279 70.6897 129.276C 70.6882 129.274 70.6871 129.273 70.6864 129.273C 70.686 129.272 70.6858 129.272 70.6856 129.272C 70.6854 129.272 70.6854 129.272 70 130C 69.3146 130.728 69.3148 130.728 69.315 130.729C 69.3152 130.729 69.3155 130.729 69.316 130.729C 69.3168 130.73 69.318 130.731 69.3196 130.733C 69.3227 130.736 69.3275 130.74 69.3338 130.746C 69.3461 130.758 69.3648 130.775 69.3892 130.798C 69.4379 130.844 69.5105 130.912 69.605 131C 69.7935 131.176 70.0716 131.436 70.4267 131.765C 71.1358 132.422 72.157 133.363 73.3979 134.49C 75.8776 136.743 79.2494 139.754 82.79 142.762C 86.3302 145.77 90.0671 148.796 93.2564 151.065C 94.8562 152.202 96.3566 153.174 97.6162 153.85C 98.8418 154.507 100.038 155 101 155L 101 153ZM 102 155L 102 154L 100 154L 100 155L 102 155ZM 73.3579 236.922C 78.9887 234.557 85.7941 228.152 91.3587 215.364C 96.9287 202.564 101.293 183.293 102 155.025L 100 154.975C 99.2978 183.077 94.9606 202.074 89.5248 214.566C 84.0837 227.07 77.5791 232.98 72.5835 235.078L 73.3579 236.922ZM 69 237L 72.9707 237L 72.9707 235L 69 235L 69 237ZM 70 237L 70 236L 68 236L 68 237L 70 237ZM 70 252L 70 237L 68 237L 68 252L 70 252ZM 158 251L 69 251L 69 253L 158 253L 158 251ZM 157 236L 157 252L 159 252L 159 236L 157 236ZM 125 154.025C 125.803 186.115 131.319 206.616 137.966 219.217C 144.594 231.783 152.44 236.632 157.933 236.998L 158.067 235.002C 153.56 234.702 146.206 230.551 139.734 218.283C 133.281 206.05 127.797 185.885 127 153.975L 125 154.025ZM 124 155L 126 155L 126 153L 124 153L 124 155ZM 156 130C 155.263 129.324 155.263 129.324 155.263 129.324C 155.263 129.325 155.262 129.325 155.262 129.325C 155.262 129.326 155.261 129.327 155.259 129.328C 155.257 129.331 155.253 129.335 155.248 129.34C 155.238 129.352 155.222 129.368 155.202 129.39C 155.16 129.435 155.099 129.501 155.018 129.588C 154.856 129.763 154.617 130.018 154.309 130.344C 153.69 130.998 152.799 131.928 151.694 133.048C 149.482 135.292 146.443 138.269 143.086 141.253C 139.727 144.238 136.099 147.191 132.675 149.411C 129.215 151.655 126.182 153 124 153L 124 155C 126.818 155 130.285 153.345 133.763 151.089C 137.276 148.809 141.023 145.762 144.414 142.747C 147.807 139.731 150.893 136.708 153.118 134.452C 154.233 133.322 155.138 132.377 155.761 131.719C 156.074 131.388 156.318 131.128 156.483 130.951C 156.565 130.862 156.629 130.793 156.671 130.747C 156.693 130.724 156.709 130.706 156.72 130.694C 156.725 130.688 156.73 130.684 156.733 130.681C 156.734 130.679 156.735 130.678 156.736 130.677C 156.736 130.677 156.737 130.676 156.737 130.676C 156.737 130.676 156.737 130.676 156 130ZM 164.857 116.865C 162.364 121.33 159.996 124.406 158.219 126.409C 157.341 127.399 156.634 128.096 156.129 128.563C 155.883 128.792 155.698 128.952 155.566 129.063C 155.503 129.116 155.459 129.152 155.427 129.178C 155.412 129.19 155.403 129.198 155.395 129.204C 155.392 129.206 155.391 129.207 155.389 129.208C 155.389 129.208 155.389 129.209 155.389 129.208C 155.389 129.208 155.389 129.208 155.389 129.208C 155.39 129.208 155.39 129.208 155.39 129.208C 155.39 129.208 155.39 129.207 156 130C 156.61 130.793 156.61 130.792 156.61 130.792C 156.61 130.792 156.611 130.792 156.611 130.792C 156.611 130.791 156.612 130.791 156.613 130.79C 156.614 130.79 156.616 130.788 156.617 130.787C 156.62 130.784 156.626 130.78 156.632 130.775C 156.642 130.767 156.66 130.753 156.681 130.736C 156.719 130.706 156.78 130.656 156.855 130.593C 156.998 130.472 157.218 130.281 157.488 130.031C 158.016 129.542 158.793 128.775 159.715 127.736C 161.538 125.68 164.034 122.431 166.603 117.84L 164.857 116.865ZM 216.227 18.9072C 211.215 72.6565 186.974 102.244 165.182 116.516L 166.278 118.189C 188.598 103.571 213.152 73.426 218.218 19.0928L 216.227 18.9072ZM 218 18L 217.223 18L 217.223 20L 218 20L 218 18ZM 217 7L 217 19L 219 19L 219 7L 217 7ZM 217 0L 217 7L 219 7L 219 0L 217 0ZM 178 1L 218 1L 218 -1L 178 -1L 178 1ZM 45 1L 178 1L 178 -1L 45 -1L 45 1ZM 178.982 20L 200 20L 200 18L 178.982 18L 178.982 20ZM 178.999 69.0543C 180.188 47.1674 180.247 30.462 179.981 18.9769L 177.982 19.0231C 178.247 30.4816 178.189 47.1096 177.002 68.9457L 178.999 69.0543ZM 176.998 86.9302C 177.937 81.5772 178.642 75.614 178.999 69.0543L 177.002 68.9457C 176.649 75.4424 175.959 81.2869 175.028 86.5843L 176.998 86.9302ZM 185.188 74.4157C 182.095 78.7146 178.754 82.569 175.302 86.0536L 176.723 87.4609C 180.221 83.9283 183.663 79.955 186.812 75.5843L 185.188 74.4157ZM 200 21C 199.009 21.1366 199.009 21.1364 199.009 21.1363C 199.009 21.1364 199.009 21.1363 199.009 21.1366C 199.009 21.1372 199.01 21.1378 199.01 21.1391C 199.01 21.1422 199.011 21.146 199.011 21.1521C 199.013 21.1652 199.016 21.1832 199.019 21.2091C 199.026 21.2628 199.035 21.3398 199.047 21.445C 199.071 21.6594 199.104 21.9704 199.141 22.3827C 199.214 23.2155 199.298 24.4171 199.344 25.952C 199.438 29.0392 199.377 33.3705 198.757 38.5054C 197.517 48.8143 194.095 62.0751 185.188 74.4157L 186.812 75.5843C 195.905 62.9249 199.483 49.1857 200.743 38.7446C 201.373 33.5045 201.437 29.0233 201.343 25.8917C 201.296 24.3173 201.208 23.058 201.133 22.2071C 201.095 21.7776 201.059 21.4412 201.034 21.2186C 201.021 21.1053 201.01 21.0164 201.003 20.9588C 200.999 20.929 200.996 20.9051 200.994 20.8902C 200.993 20.8822 200.992 20.8755 200.992 20.8715C 200.991 20.8692 200.991 20.8672 200.991 20.8661C 200.991 20.8654 200.991 20.8647 200.991 20.8644C 200.991 20.8638 200.991 20.8634 200 21ZM 199 19L 199 21L 201 21L 201 19L 199 19ZM 17 19L 17 21L 19 21L 19 19L 17 19ZM 45 18L 18 18L 18 20L 45 20L 45 18ZM 46 63L 46 19L 44 19L 44 63L 46 63ZM 49.899 92.9234C 47.5528 84.4962 45.997 74.5956 46 63L 44 63C 44.003 74.7511 45.5982 84.9201 47.9721 93.4594L 49.899 92.9234ZM 31.1885 75.5843C 36.4205 82.846 42.4359 88.9735 48.2876 93.9531L 49.5835 92.4298C 43.7986 87.5096 37.9499 81.5573 32.8115 74.4157L 31.1885 75.5843ZM 18 21C 17.0094 20.8634 17.0093 20.8638 17.0092 20.8644C 17.0092 20.8647 17.0091 20.8654 17.009 20.8661C 17.0089 20.8672 17.0086 20.8692 17.0083 20.8715C 17.0077 20.8755 17.0068 20.8822 17.0058 20.8902C 17.0038 20.9051 17.0007 20.929 16.9969 20.9588C 16.9897 21.0164 16.9788 21.1053 16.9659 21.2186C 16.9405 21.4412 16.905 21.7776 16.8671 22.2071C 16.7922 23.058 16.7044 24.3173 16.6567 25.8917C 16.5625 29.0233 16.6272 33.5045 17.2572 38.7446C 18.5174 49.1857 22.0948 62.9249 31.1885 75.5843L 32.8115 74.4157C 23.9052 62.0751 20.4826 48.8143 19.2428 38.5054C 18.6228 33.3705 18.5625 29.0392 18.6558 25.952C 18.7019 24.4171 18.786 23.2155 18.8594 22.3827C 18.8957 21.9704 18.9286 21.6594 18.953 21.445C 18.965 21.3398 18.9744 21.2628 18.9812 21.2091C 18.9845 21.1832 18.9868 21.1652 18.9886 21.1521C 18.9894 21.146 18.9899 21.1422 18.9903 21.1391C 18.9905 21.1378 18.9905 21.1372 18.9906 21.1366C 18.9907 21.1363 18.9907 21.1364 18.9907 21.1363C 18.9907 21.1364 18.9906 21.1366 18 21Z"/>
<path id="path2_fill" fill-rule="evenodd" d="M 44.6429 0L 0 0L 0 6.94444L 0 18.8492L 0.771149 18.8492C 6.7052 82.4888 39.7003 112.335 63.7481 122.913C 67.0495 127.004 69.4445 128.968 69.4445 128.968C 69.4445 128.968 94.7421 152.778 100.198 152.778L 100.198 153.77C 98.8004 209.692 82.9337 229.699 72.3917 234.127L 68.4524 234.127L 68.4524 235.119L 68.4524 250L 156.746 250L 156.746 234.127C 146.825 233.466 126.587 216.27 125 152.778L 123.016 152.778C 132.937 152.778 154.762 128.968 154.762 128.968C 154.762 128.968 159.393 125.406 164.414 116.421C 186.295 102.091 210.5 72.4615 215.499 18.8492L 216.27 18.8492L 216.27 6.94444L 216.27 0L 176.587 0L 44.6429 0ZM 198.413 18.8492L 177.561 18.8492C 177.824 30.23 177.766 46.7644 176.587 68.4524C 176.235 74.9287 175.544 80.7857 174.616 86.0686C 178.063 82.5879 181.428 78.7051 184.524 74.4048C 202.381 49.6032 198.413 20.8333 198.413 20.8333L 198.413 18.8492ZM 17.8571 20.8333L 17.8571 18.8492L 44.6429 18.8492L 44.6429 62.5C 44.6429 74.0807 46.2059 84.0359 48.5472 92.4518C 42.775 87.5413 36.8901 81.5493 31.746 74.4048C 13.8889 49.6032 17.8571 20.8333 17.8571 20.8333Z"/>
<path id="path3_stroke_2x" d="M 0 0L 0 -1L -1 -1L -1 0L 0 0ZM 0 18.8492L -1 18.8492L -1 19.8492L 0 19.8492L 0 18.8492ZM 0.771149 18.8492L 1.76683 18.7564L 1.68224 17.8492L 0.771149 17.8492L 0.771149 18.8492ZM 63.7481 122.913L 64.5264 122.285L 64.3735 122.096L 64.1508 121.998L 63.7481 122.913ZM 69.4445 128.968L 70.1298 128.24L 70.1049 128.217L 70.0785 128.195L 69.4445 128.968ZM 100.198 152.778L 101.198 152.778L 101.198 151.778L 100.198 151.778L 100.198 152.778ZM 100.198 153.77L 101.198 153.795L 101.198 153.782L 101.198 153.77L 100.198 153.77ZM 72.3917 234.127L 72.3917 235.127L 72.5931 235.127L 72.7789 235.049L 72.3917 234.127ZM 68.4524 234.127L 68.4524 233.127L 67.4524 233.127L 67.4524 234.127L 68.4524 234.127ZM 68.4524 250L 67.4524 250L 67.4524 251L 68.4524 251L 68.4524 250ZM 156.746 250L 156.746 251L 157.746 251L 157.746 250L 156.746 250ZM 156.746 234.127L 157.746 234.127L 157.746 233.191L 156.813 233.129L 156.746 234.127ZM 125 152.778L 126 152.753L 125.975 151.778L 125 151.778L 125 152.778ZM 154.762 128.968L 154.152 128.176L 154.083 128.229L 154.025 128.293L 154.762 128.968ZM 164.414 116.421L 163.867 115.585L 163.661 115.719L 163.541 115.933L 164.414 116.421ZM 215.499 18.8492L 215.499 17.8492L 214.588 17.8492L 214.503 18.7564L 215.499 18.8492ZM 216.27 18.8492L 216.27 19.8492L 217.27 19.8492L 217.27 18.8492L 216.27 18.8492ZM 216.27 0L 217.27 0L 217.27 -1L 216.27 -1L 216.27 0ZM 177.561 18.8492L 177.561 17.8492L 176.538 17.8492L 176.561 18.8723L 177.561 18.8492ZM 198.413 18.8492L 199.413 18.8492L 199.413 17.8492L 198.413 17.8492L 198.413 18.8492ZM 176.587 68.4524L 175.589 68.3981L 175.589 68.3981L 176.587 68.4524ZM 174.616 86.0686L 173.631 85.8957L 173.078 89.0425L 175.326 86.7723L 174.616 86.0686ZM 184.524 74.4048L 183.712 73.8204L 183.712 73.8205L 184.524 74.4048ZM 198.413 20.8333L 197.413 20.8333L 197.413 20.902L 197.422 20.97L 198.413 20.8333ZM 17.8571 18.8492L 17.8571 17.8492L 16.8571 17.8492L 16.8571 18.8492L 17.8571 18.8492ZM 17.8571 20.8333L 18.8478 20.97L 18.8571 20.902L 18.8571 20.8333L 17.8571 20.8333ZM 44.6429 18.8492L 45.6429 18.8492L 45.6429 17.8492L 44.6429 17.8492L 44.6429 18.8492ZM 48.5472 92.4518L 47.8992 93.2135L 50.3855 95.3287L 49.5106 92.1838L 48.5472 92.4518ZM 31.746 74.4048L 32.5576 73.8205L 32.5576 73.8204L 31.746 74.4048ZM 0 1L 44.6429 1L 44.6429 -1L 0 -1L 0 1ZM 1 6.94444L 1 0L -1 0L -1 6.94444L 1 6.94444ZM 1 18.8492L 1 6.94444L -1 6.94444L -1 18.8492L 1 18.8492ZM 0.771149 17.8492L 0 17.8492L 0 19.8492L 0.771149 19.8492L 0.771149 17.8492ZM 64.1508 121.998C 40.4393 111.568 7.66758 82.0389 1.76683 18.7564L -0.224532 18.942C 5.74282 82.9387 38.9613 113.103 63.3455 123.828L 64.1508 121.998ZM 69.4445 128.968C 70.0785 128.195 70.0787 128.195 70.0788 128.195C 70.0788 128.195 70.0789 128.195 70.0789 128.195C 70.0789 128.195 70.0792 128.195 70.0791 128.195C 70.0793 128.196 70.0791 128.195 70.0789 128.195C 70.0781 128.195 70.0774 128.194 70.0758 128.193C 70.0718 128.189 70.067 128.185 70.0592 128.179C 70.0423 128.165 70.0192 128.145 69.9861 128.117C 69.917 128.058 69.8192 127.972 69.6869 127.854C 69.4167 127.611 69.0321 127.254 68.5383 126.765C 67.5392 125.775 66.1527 124.302 64.5264 122.285L 62.9699 123.541C 64.645 125.616 66.1067 127.17 67.1304 128.185C 67.648 128.698 68.0684 129.088 68.3504 129.341C 68.4942 129.471 68.6093 129.571 68.6841 129.635C 68.7229 129.668 68.7545 129.695 68.7743 129.711C 68.7849 129.72 68.7939 129.728 68.7992 129.732C 68.8022 129.735 68.805 129.737 68.8065 129.738C 68.8075 129.739 68.8084 129.74 68.8089 129.74C 68.8092 129.741 68.8096 129.741 68.8097 129.741C 68.8099 129.741 68.81 129.741 68.8101 129.741C 68.8102 129.741 68.8104 129.742 69.4445 128.968ZM 100.198 151.778C 99.7904 151.778 98.995 151.523 97.783 150.873C 96.6051 150.243 95.2224 149.346 93.6708 148.243C 90.5571 146.029 86.917 143.08 83.4228 140.111C 79.9289 137.143 76.6086 134.178 74.1549 131.948C 72.929 130.835 71.9232 129.908 71.2219 129.258C 70.8717 128.933 70.5988 128.679 70.4127 128.505C 70.3198 128.418 70.2491 128.352 70.2013 128.307C 70.1775 128.285 70.1596 128.268 70.1476 128.257C 70.1416 128.251 70.1371 128.247 70.1341 128.244C 70.1326 128.243 70.1316 128.242 70.1308 128.241C 70.1305 128.241 70.1302 128.24 70.13 128.24C 70.1299 128.24 70.1298 128.24 69.4445 128.968C 68.7591 129.696 68.7592 129.697 68.7595 129.697C 68.7597 129.697 68.76 129.697 68.7604 129.698C 68.7612 129.698 68.7624 129.7 68.764 129.701C 68.7671 129.704 68.7719 129.708 68.7781 129.714C 68.7904 129.726 68.8089 129.743 68.8331 129.766C 68.8813 129.811 68.9534 129.879 69.0471 129.966C 69.2342 130.141 69.5101 130.398 69.8623 130.725C 70.5658 131.377 71.579 132.31 72.81 133.429C 75.2701 135.664 78.6153 138.651 82.1279 141.635C 85.64 144.619 89.3475 147.622 92.5117 149.872C 94.099 151.001 95.5879 151.965 96.8378 152.636C 98.0537 153.288 99.2424 153.778 100.198 153.778L 100.198 151.778ZM 101.198 153.77L 101.198 152.778L 99.1985 152.778L 99.1984 153.77L 101.198 153.77ZM 72.7789 235.049C 78.3675 232.702 85.1201 226.345 90.641 213.658C 96.1672 200.958 100.497 181.839 101.198 153.795L 99.1987 153.745C 98.5018 181.623 94.1992 200.468 88.8071 212.86C 83.4096 225.264 76.9579 231.124 72.0044 233.205L 72.7789 235.049ZM 68.4524 235.127L 72.3917 235.127L 72.3917 233.127L 68.4524 233.127L 68.4524 235.127ZM 69.4524 235.119L 69.4524 234.127L 67.4524 234.127L 67.4524 235.119L 69.4524 235.119ZM 69.4524 250L 69.4524 235.119L 67.4524 235.119L 67.4524 250L 69.4524 250ZM 156.746 249L 68.4524 249L 68.4524 251L 156.746 251L 156.746 249ZM 155.746 234.127L 155.746 250L 157.746 250L 157.746 234.127L 155.746 234.127ZM 124 152.803C 124.796 184.639 130.269 204.979 136.864 217.48C 143.44 229.948 151.226 234.761 156.68 235.125L 156.813 233.129C 152.345 232.831 145.052 228.716 138.632 216.547C 132.231 204.413 126.791 184.409 126 152.753L 124 152.803ZM 123.016 153.778L 125 153.778L 125 151.778L 123.016 151.778L 123.016 153.778ZM 154.762 128.968C 154.025 128.293 154.025 128.293 154.025 128.293C 154.025 128.293 154.024 128.293 154.024 128.293C 154.023 128.294 154.023 128.295 154.021 128.296C 154.019 128.299 154.015 128.303 154.01 128.308C 154 128.32 153.985 128.336 153.964 128.358C 153.923 128.403 153.863 128.468 153.782 128.554C 153.621 128.728 153.385 128.98 153.078 129.304C 152.464 129.953 151.58 130.875 150.485 131.986C 148.29 134.212 145.275 137.166 141.945 140.126C 138.613 143.087 135.014 146.017 131.617 148.219C 128.185 150.445 125.178 151.778 123.016 151.778L 123.016 153.778C 125.814 153.778 129.256 152.134 132.706 149.896C 136.191 147.634 139.909 144.611 143.274 141.62C 146.64 138.628 149.701 135.629 151.909 133.391C 153.014 132.269 153.913 131.332 154.531 130.679C 154.841 130.351 155.083 130.092 155.246 129.917C 155.328 129.829 155.392 129.76 155.434 129.715C 155.455 129.692 155.471 129.674 155.482 129.663C 155.487 129.657 155.492 129.652 155.495 129.649C 155.496 129.647 155.497 129.646 155.498 129.645C 155.498 129.645 155.498 129.645 155.499 129.644C 155.499 129.644 155.499 129.644 154.762 128.968ZM 163.541 115.933C 161.069 120.363 158.72 123.413 156.957 125.4C 156.087 126.383 155.386 127.074 154.885 127.537C 154.64 127.764 154.457 127.923 154.326 128.033C 154.264 128.086 154.22 128.121 154.188 128.147C 154.173 128.159 154.165 128.166 154.157 128.172C 154.154 128.174 154.153 128.175 154.151 128.176C 154.151 128.177 154.151 128.177 154.151 128.177C 154.151 128.177 154.151 128.176 154.151 128.176C 154.151 128.176 154.152 128.176 154.152 128.176C 154.152 128.176 154.152 128.176 154.762 128.968C 155.372 129.761 155.372 129.761 155.372 129.76C 155.372 129.76 155.373 129.76 155.373 129.76C 155.373 129.76 155.374 129.759 155.375 129.759C 155.376 129.758 155.377 129.756 155.379 129.755C 155.382 129.753 155.388 129.748 155.394 129.744C 155.404 129.736 155.422 129.722 155.442 129.705C 155.48 129.674 155.541 129.625 155.615 129.562C 155.757 129.442 155.975 129.253 156.243 129.005C 156.768 128.52 157.538 127.759 158.453 126.727C 160.262 124.687 162.739 121.464 165.287 116.909L 163.541 115.933ZM 214.503 18.7564C 209.531 72.0767 185.484 101.427 163.867 115.585L 164.962 117.258C 187.107 102.755 211.468 72.8463 216.494 18.942L 214.503 18.7564ZM 216.27 17.8492L 215.499 17.8492L 215.499 19.8492L 216.27 19.8492L 216.27 17.8492ZM 215.27 6.94444L 215.27 18.8492L 217.27 18.8492L 217.27 6.94444L 215.27 6.94444ZM 215.27 0L 215.27 6.94444L 217.27 6.94444L 217.27 0L 215.27 0ZM 176.587 1L 216.27 1L 216.27 -1L 176.587 -1L 176.587 1ZM 44.6429 1L 176.587 1L 176.587 -1L 44.6429 -1L 44.6429 1ZM 177.561 19.8492L 198.413 19.8492L 198.413 17.8492L 177.561 17.8492L 177.561 19.8492ZM 177.586 68.5066C 178.766 46.7933 178.824 30.2202 178.561 18.8261L 176.561 18.8723C 176.824 30.2398 176.766 46.7355 175.589 68.3981L 177.586 68.5066ZM 175.601 86.2416C 176.533 80.9309 177.232 75.0146 177.586 68.5066L 175.589 68.3981C 175.239 74.8429 174.554 80.6405 173.631 85.8957L 175.601 86.2416ZM 183.712 73.8205C 180.643 78.0849 177.329 81.9082 173.905 85.365L 175.326 86.7723C 178.796 83.2675 182.212 79.3253 185.335 74.9891L 183.712 73.8205ZM 198.413 20.8333C 197.422 20.97 197.422 20.9697 197.422 20.9696C 197.422 20.9697 197.422 20.9697 197.422 20.9699C 197.422 20.9705 197.422 20.9711 197.422 20.9724C 197.423 20.9754 197.423 20.9792 197.424 20.9852C 197.426 20.9982 197.428 21.0161 197.431 21.0418C 197.438 21.095 197.447 21.1713 197.459 21.2757C 197.484 21.4884 197.516 21.7968 197.552 22.2058C 197.625 23.0318 197.708 24.2237 197.754 25.7463C 197.847 28.8088 197.787 33.1051 197.172 38.1988C 195.942 48.4254 192.547 61.5791 183.712 73.8204L 185.335 74.9891C 194.358 62.4289 197.907 48.7968 199.157 38.4381C 199.782 33.2391 199.847 28.7929 199.753 25.686C 199.706 24.1239 199.619 22.8743 199.544 22.0301C 199.507 21.604 199.472 21.2701 199.446 21.0492C 199.434 20.9369 199.423 20.8486 199.416 20.7914C 199.412 20.7619 199.409 20.7382 199.407 20.7233C 199.406 20.7154 199.405 20.7087 199.404 20.7048C 199.404 20.7025 199.404 20.7005 199.404 20.6994C 199.404 20.6987 199.403 20.6981 199.403 20.6977C 199.403 20.6972 199.403 20.6967 198.413 20.8333ZM 197.413 18.8492L 197.413 20.8333L 199.413 20.8333L 199.413 18.8492L 197.413 18.8492ZM 16.8571 18.8492L 16.8571 20.8333L 18.8571 20.8333L 18.8571 18.8492L 16.8571 18.8492ZM 44.6429 17.8492L 17.8571 17.8492L 17.8571 19.8492L 44.6429 19.8492L 44.6429 17.8492ZM 45.6429 62.5L 45.6429 18.8492L 43.6429 18.8492L 43.6429 62.5L 45.6429 62.5ZM 49.5106 92.1838C 47.1832 83.824 45.6399 74.0029 45.6429 62.5L 43.6429 62.5C 43.6459 74.1585 45.2286 84.2478 47.5838 92.7199L 49.5106 92.1838ZM 30.9345 74.9891C 36.1254 82.1936 42.0936 88.2732 47.8992 93.2135L 49.1952 91.6902C 43.4564 86.8093 37.6548 80.9049 32.5576 73.8205L 30.9345 74.9891ZM 17.8571 20.8333C 16.8665 20.6967 16.8665 20.6972 16.8664 20.6977C 16.8663 20.6981 16.8662 20.6987 16.8662 20.6994C 16.866 20.7005 16.8657 20.7025 16.8654 20.7048C 16.8649 20.7087 16.864 20.7154 16.863 20.7233C 16.861 20.7382 16.8579 20.7619 16.8542 20.7914C 16.847 20.8486 16.8362 20.9369 16.8234 21.0492C 16.7982 21.2701 16.763 21.604 16.7254 22.0301C 16.651 22.8743 16.5639 24.1239 16.5166 25.686C 16.4231 28.7929 16.4874 33.2391 17.1123 38.4381C 18.3626 48.7968 21.9122 62.4289 30.9345 74.9891L 32.5576 73.8204C 23.7227 61.5791 20.3278 48.4254 19.098 38.1988C 18.4829 33.1051 18.4231 28.8088 18.5157 25.7463C 18.5614 24.2237 18.6448 23.0318 18.7176 22.2058C 18.7537 21.7968 18.7863 21.4884 18.8105 21.2757C 18.8224 21.1713 18.8317 21.095 18.8384 21.0418C 18.8417 21.0161 18.844 20.9982 18.8457 20.9852C 18.8465 20.9792 18.847 20.9754 18.8474 20.9724C 18.8476 20.9711 18.8477 20.9705 18.8478 20.9699C 18.8478 20.9697 18.8478 20.9697 18.8478 20.9696C 18.8478 20.9697 18.8478 20.97 17.8571 20.8333Z"/>
</defs>
</svg>
